<svg xmlns="http://www.w3.org/2000/svg" viewBox="0 0 215 35.01"><defs><style>.cls-1{fill:#070707;}</style></defs><title>Logo_ESC_N</title><g id="Capa_2" data-name="Capa 2"><g id="Capa_1-2" data-name="Capa 1"><g id="Capa_2-2" data-name="Capa 2"><g id="Capa_1-2-2" data-name="Capa 1-2"><g id="I1doX2"><path class="cls-1" d="M97.85.16a135.11,135.11,0,0,1,18.43.9c4.43.58,8.73,1.59,12.56,4a8.89,8.89,0,0,1,3.95,4.43c.46,1.32.11,1.84-1.26,1.84H115.68a1.68,1.68,0,0,1-1.26-.45,7.49,7.49,0,0,0-5.24-3.09A45.59,45.59,0,0,0,102,7c-5.09,0-10.19.18-15.29.38a23.46,23.46,0,0,0-3.72.7,5.13,5.13,0,0,0-1.09.42,2,2,0,0,0-1.34,1.87A1.84,1.84,0,0,0,82,12.09a11.21,11.21,0,0,0,2.79.71c4.1.28,8.19.49,12.29.68,6.21.29,12.43.45,18.63.82a37.06,37.06,0,0,1,12.09,2.46,15.45,15.45,0,0,1,1.94,1,6.52,6.52,0,0,1,.92,10.84,19.8,19.8,0,0,1-8.44,4,70.12,70.12,0,0,1-15.6,2c-6.15.15-12.31.17-18.46,0A57.46,57.46,0,0,1,70.3,31.54c-2.56-.9-5-2.05-6.66-4.3A10.67,10.67,0,0,1,62.17,24c-.3-1,.21-1.55,1.27-1.55H79.93A1.49,1.49,0,0,1,81,22.8c1.75,2.93,4.61,3.92,7.71,4.49a55.77,55.77,0,0,0,13.9.42,65.37,65.37,0,0,0,8-1.18,9.25,9.25,0,0,0,3.2-1.4,1.7,1.7,0,0,0-.35-3.21,18.67,18.67,0,0,0-4.85-.93c-4.46-.22-8.93-.28-13.4-.38a173.49,173.49,0,0,1-19.86-1.29A32.3,32.3,0,0,1,67,17.26c-2.39-1-4.51-2.39-4.75-5.28A7.52,7.52,0,0,1,65.8,5a20.82,20.82,0,0,1,7.9-3C80.22.56,86.86.32,93.5.16,95,.13,96.4.16,97.85.16Z"/><path class="cls-1" d="M28.64,34.16H1.57C.23,34.16,0,33.93,0,32.57V2.28C0,1,.26.72,1.61.72H55.76c1.3,0,1.55.25,1.56,1.51V6.12c0,1.27-.21,1.48-1.47,1.48H19.27a1,1,0,0,0-1,1h0V13a1,1,0,0,0,1,1h31.2c1.54,0,1.65.11,1.65,1.64v3.8c0,1.27-.24,1.43-1.42,1.44H19.82c-1.36,0-1.55.2-1.56,1.58v3.34c0,1.22.27,1.47,1.51,1.47H55.63c1.55,0,1.69.14,1.69,1.71v3.43c0,1.56-.17,1.73-1.69,1.73Z"/><path class="cls-1" d="M179.09,35A88.52,88.52,0,0,1,158,32.72a34.3,34.3,0,0,1-11.58-4.91A13.39,13.39,0,0,1,140.87,21c-1.44-4.59-.24-8.56,3.14-11.9A26,26,0,0,1,154.4,3.22a67.5,67.5,0,0,1,18-3.06,124.7,124.7,0,0,1,19.8.56c6.09.66,12.05,1.93,17.48,4.89a24,24,0,0,1,4,3.32,3.83,3.83,0,0,1,.76,1.12c.94,1.72.66,2.21-1.26,2.21H199.33a2.73,2.73,0,0,1-2-.75A17.1,17.1,0,0,0,189.62,8a58.87,58.87,0,0,0-15.51-.8A22.06,22.06,0,0,0,164,9.9a9.1,9.1,0,0,0-4.35,5,8.05,8.05,0,0,0,2.29,8.63,17,17,0,0,0,9,3.87,56.59,56.59,0,0,0,18.5-.4,16.77,16.77,0,0,0,8.42-4,2.05,2.05,0,0,1,1.25-.38h14.95c.81,0,1.1.39.86,1.05a10.47,10.47,0,0,1-1.26,2.66c-1.89,2.6-4.68,3.89-7.61,4.94a60.79,60.79,0,0,1-16.83,3.22C185.85,34.72,182.47,34.81,179.09,35Z"/></g></g></g></g></g></svg>