<svg xmlns="http://www.w3.org/2000/svg" viewBox="0 0 215.01 34.96"><defs><style>.cls-1{fill:#fff;}</style></defs><title>Logo_ESC</title><g id="Capa_2" data-name="Capa 2"><g id="Capa_1-2" data-name="Capa 1"><g id="I1doX2"><path class="cls-1" d="M97.85.16a133.53,133.53,0,0,1,18.43.9c4.43.58,8.73,1.59,12.56,4a8.85,8.85,0,0,1,3.95,4.43c.46,1.32.11,1.84-1.26,1.84-5.28,0-10.56,0-15.85,0a1.72,1.72,0,0,1-1.26-.45,7.47,7.47,0,0,0-5.24-3.09A44.52,44.52,0,0,0,102,7c-5.09,0-10.19.18-15.29.38a22.77,22.77,0,0,0-3.72.7,4.64,4.64,0,0,0-1.09.42,2,2,0,0,0-1.34,1.87A1.85,1.85,0,0,0,82,12.09a11.56,11.56,0,0,0,2.79.71c4.1.28,8.19.49,12.29.68,6.21.29,12.43.45,18.63.82a36.85,36.85,0,0,1,12.09,2.46,15.27,15.27,0,0,1,1.94,1,6.53,6.53,0,0,1,.92,10.84,19.94,19.94,0,0,1-8.44,4,70.15,70.15,0,0,1-15.6,2c-6.15.15-12.31.17-18.46,0a57.8,57.8,0,0,1-17.86-3.06c-2.56-.9-5-2.05-6.66-4.3a10.7,10.7,0,0,1-1.47-3.24c-.3-1,.21-1.55,1.27-1.55q8.25,0,16.49,0A1.46,1.46,0,0,1,81,22.8c1.75,2.93,4.61,3.92,7.71,4.49a56.27,56.27,0,0,0,13.9.42,66,66,0,0,0,8-1.18,9.41,9.41,0,0,0,3.2-1.4,1.7,1.7,0,0,0-.35-3.21,18.26,18.26,0,0,0-4.85-.93c-4.46-.22-8.93-.28-13.4-.38a175.79,175.79,0,0,1-19.86-1.29,32.61,32.61,0,0,1-8.32-2.06c-2.39-1-4.51-2.39-4.75-5.28A7.52,7.52,0,0,1,65.8,5a20.8,20.8,0,0,1,7.9-3C80.22.56,86.86.32,93.5.16,95,.13,96.4.16,97.85.16Z"/><path class="cls-1" d="M28.64,34.16H1.57C.23,34.16,0,33.93,0,32.57V2.28C0,1,.26.72,1.61.72H55.76c1.3,0,1.55.25,1.56,1.51V6.12c0,1.27-.21,1.48-1.47,1.48H19.27a1,1,0,0,0-1,1c0,1.48,0,3,0,4.43a1,1,0,0,0,1,1H50.47c1.54,0,1.65.11,1.65,1.64,0,1.27,0,2.53,0,3.8s-.24,1.43-1.42,1.44H19.82c-1.36,0-1.55.2-1.56,1.58v3.34c0,1.22.27,1.47,1.51,1.47H55.63c1.55,0,1.69.14,1.69,1.71v3.43c0,1.56-.17,1.73-1.69,1.73Z"/><path class="cls-1" d="M179.09,35A88.7,88.7,0,0,1,158,32.72a34.41,34.41,0,0,1-11.58-4.91A13.44,13.44,0,0,1,140.87,21c-1.44-4.59-.24-8.56,3.14-11.9A26,26,0,0,1,154.4,3.22a67,67,0,0,1,18-3.06,124.7,124.7,0,0,1,19.8.56c6.09.66,12.05,1.93,17.48,4.89a23.59,23.59,0,0,1,4,3.32,3.82,3.82,0,0,1,.76,1.12c.94,1.72.66,2.21-1.26,2.21-4.62,0-9.24,0-13.85,0a2.78,2.78,0,0,1-1.95-.75A17,17,0,0,0,189.62,8a58.42,58.42,0,0,0-15.51-.8A22,22,0,0,0,164,9.9a9.09,9.09,0,0,0-4.35,5,8.06,8.06,0,0,0,2.29,8.63,17.05,17.05,0,0,0,9,3.87A56.68,56.68,0,0,0,189.44,27,16.81,16.81,0,0,0,197.86,23a2,2,0,0,1,1.25-.38c5,0,10,0,14.95,0,.81,0,1.1.39.86,1.05a10.65,10.65,0,0,1-1.26,2.66c-1.89,2.6-4.68,3.89-7.61,4.94a61.16,61.16,0,0,1-16.83,3.22C185.85,34.72,182.47,34.81,179.09,35Z"/></g></g></g></svg>